<?xml version="1.0" encoding="UTF-8" standalone="no"?>
<svg
   xmlns:dc="http://purl.org/dc/elements/1.1/"
   xmlns:cc="http://creativecommons.org/ns#"
   xmlns:rdf="http://www.w3.org/1999/02/22-rdf-syntax-ns#"
   xmlns:svg="http://www.w3.org/2000/svg"
   xmlns="http://www.w3.org/2000/svg"
   viewBox="0 0 65 32.746666"
   height="32.746666"
   width="65"
   xml:space="preserve"
   id="svg100"
   version="1.1"><metadata
     id="metadata8"><rdf:RDF><cc:Work
         rdf:about=""><dc:format>image/svg+xml</dc:format><dc:type
           rdf:resource="http://purl.org/dc/dcmitype/StillImage" /></cc:Work></rdf:RDF></metadata><defs
     id="defs6" /><g
     transform="matrix(1.3333333,0,0,-1.3333333,0,32.746667)"
     id="g10">
      <g
       transform="scale(0.1)"
       id="g12">
        <!-- start Exxon symbol -->
        <path
          id="path38"
          style="fill:#ffffff;fill-opacity:1;fill-rule:nonzero;stroke:none"
          d="M 0,193.27 H 84.0586 V 169.484 H 28.5938 V 143.027 H 81.5625 V 119.938 H 28.5938 V 89.4453 H 84.0586 V 65.6289 L 0,65.6289 Z M 122.461,65.6289 151.262,102.645 169.23,84.4648 128.121,32.9883 h 32.16 l 26.321,34.1094 49.535,-50.4063 h 38.82 l -71.191,71.582 56.058,70.8436 h -32.168 l -41.433,-53.195 -17.938,18.016 46.09,58.062 h -32.094 l -31.465,-40.508 -17.101,17.625 H 95.4297 L 134,120.184 90.4141,65.6289 Z m 129.082,46.7301 c 0,-26.9645 21.605,-48.8668 49.879,-48.8668 28.281,0 49.879,21.9023 49.879,48.8668 0,26.969 -21.598,48.922 -49.879,48.922 -28.274,0 -49.879,-21.953 -49.879,-48.922 z m 26.977,0.004 c 0,12.926 9.656,23.543 23.078,23.543 13.422,0 23.082,-10.617 23.082,-23.543 0,-12.9216 -9.66,-23.5427 -23.082,-23.5427 -13.422,0 -23.078,10.6211 -23.078,23.5427 z m 88.043,46.754 h 25.878 v -8.844 c 2.778,2.43 11.747,11.024 28.321,11.024 19.496,0 34.98,-14.41 34.98,-37.012 V 65.6289 h -27.34 v 51.3941 c 0,12.598 -6.132,20.071 -17.254,20.071 -10.781,0 -17.265,-7.043 -17.265,-20.071 V 65.6289 h -27.32 v 93.4881" />
        <path
          id="path40"
          style="fill:#ffffff;fill-opacity:1;fill-rule:nonzero;stroke:none"
          d="m 483.699,147.324 h -2.273 v 9.852 h -0.071 l -2.179,-9.852 h -2.442 l -2.168,9.852 h -0.031 v -9.852 h -2.293 v 11.793 h 3.621 l 2.117,-9.301 h 0.063 l 2.094,9.301 h 3.562 z m -16.41,0 h -2.445 v 9.696 h -3.598 v 2.097 h 9.633 v -2.097 h -3.59 v -9.696" />
        <!-- end Exxon symbol -->
      </g></g></svg>