<?xml version="1.0" encoding="UTF-8" standalone="no"?>
<svg
   xmlns:dc="http://purl.org/dc/elements/1.1/"
   xmlns:cc="http://creativecommons.org/ns#"
   xmlns:rdf="http://www.w3.org/1999/02/22-rdf-syntax-ns#"
   xmlns:svg="http://www.w3.org/2000/svg"
   xmlns="http://www.w3.org/2000/svg"
   viewBox="0 0 176 33.200001"
   height="33.200001"
   width="176"
   xml:space="preserve"
   id="svg2"
   version="1.1"><metadata
     id="metadata8"><rdf:RDF><cc:Work
         rdf:about=""><dc:format>image/svg+xml</dc:format><dc:type
           rdf:resource="http://purl.org/dc/dcmitype/StillImage" /></cc:Work></rdf:RDF></metadata><defs
     id="defs6" /><g
     transform="matrix(1.3333333,0,0,-1.3333333,0,33.2)"
     id="g10"><g
       transform="scale(0.1)"
       id="g12"><path
         id="path14"
         style="fill:#ffffff;fill-opacity:1;fill-rule:nonzero;stroke:none"
         d="m 673.578,249.004 h 63.735 l 30.093,-131.383 h 1.356 l 30.84,131.383 h 61.921 V 69.0078 H 823.605 V 204.918 h -1.726 L 788.477,69.0078 H 745.879 L 713.242,204.918 H 711.52 V 69.0078 H 673.578 Z M 0,249.004 H 118.547 V 215.465 H 40.3242 V 178.156 H 115.023 V 145.598 H 40.3242 v -43 H 118.547 V 69.0078 L 0,69.0078 Z M 172.711,69.0078 213.32,121.211 238.66,95.5742 180.688,22.9883 h 45.359 L 263.164,71.0781 333.023,0 h 54.743 l -100.399,100.945 79.063,99.899 h -45.367 l -58.434,-75.016 -25.301,25.406 65,81.875 H 257.07 l -44.379,-57.121 -24.113,24.856 h -53.992 l 54.391,-54.906 -61.461,-76.9302 z m 911.709,0 0.4,10.1485 c 2.73,-2.0625 14.8,-13.1641 40.08,-13.1641 33.24,0 64.08,29.7734 64.08,68.9138 0,39.219 -28.95,68.996 -63.64,68.996 -26.52,0 -38.65,-12.152 -40.52,-13.511 v 58.613 h -37.47 V 69.0078 Z m 64.98,65.9962 c 0,-18.59 -14.25,-33.031 -32.92,-33.031 -18.87,0 -33.05,14.394 -33.05,32.933 0,18.77 14.37,33.02 33.09,33.02 18.83,0 32.88,-14.375 32.88,-32.922 z m 131.53,114 h 39.08 V 69.0078 h -39.08 z m -69.2,0 h 39.07 v -33.539 h -39.07 z m 0,-48.16 h 39.07 V 69.0078 h -39.07 z M 354.75,134.91 c 0,-38.0233 30.469,-68.9139 70.344,-68.9139 39.879,0 70.34,30.8906 70.34,68.9139 0,38.031 -30.461,68.988 -70.34,68.988 -39.875,0 -70.344,-30.957 -70.344,-68.988 z m 38.047,0.008 c 0,18.227 13.613,33.199 32.539,33.199 18.937,0 32.551,-14.972 32.551,-33.199 0,-18.223 -13.614,-33.203 -32.551,-33.203 -18.926,0 -32.539,14.98 -32.539,33.203 z m 491.297,0.008 c 0,-38.0315 30.472,-68.9104 70.34,-68.9104 39.886,0 70.356,30.8828 70.356,68.9104 0,38.027 -30.47,68.984 -70.356,68.984 -39.868,0 -70.34,-30.957 -70.34,-68.984 z m 38.047,0.008 c 0,18.226 13.617,33.191 32.543,33.191 18.933,0 32.55,-14.965 32.55,-33.191 0,-18.223 -13.617,-33.204 -32.55,-33.204 -18.926,0 -32.543,14.981 -32.543,33.204 z m -405.184,65.91 h 36.5 v -12.469 c 3.922,3.422 16.566,15.543 39.941,15.543 27.493,0 49.329,-20.32 49.329,-52.195 V 69.0078 h -38.555 v 72.4762 c 0,17.766 -8.649,28.305 -24.336,28.305 -15.207,0 -24.344,-9.93 -24.344,-28.305 V 69.0078 H 516.957 V 200.844" /></g></g></svg>