<?xml version="1.0" encoding="UTF-8" standalone="no"?>
<svg
   xmlns:dc="http://purl.org/dc/elements/1.1/"
   xmlns:cc="http://creativecommons.org/ns#"
   xmlns:rdf="http://www.w3.org/1999/02/22-rdf-syntax-ns#"
   xmlns:svg="http://www.w3.org/2000/svg"
   xmlns="http://www.w3.org/2000/svg"
   viewBox="327 0 65 32.746666"
   height="32.746666"
   width="65"
   xml:space="preserve"
   id="svg103"
   version="1.1"><metadata
     id="metadata8"><rdf:RDF><cc:Work
         rdf:about=""><dc:format>image/svg+xml</dc:format><dc:type
           rdf:resource="http://purl.org/dc/dcmitype/StillImage" /></cc:Work></rdf:RDF></metadata><defs
     id="defs6" /><g
     transform="matrix(1.3333333,0,0,-1.3333333,0,32.746667)"
     id="g10">
      <g
       transform="scale(0.1)"
       id="g12">
        <!-- start XTO symbol -->
        <path
          id="path14"
          style="fill:#ffffff;fill-opacity:1;fill-rule:evenodd;stroke:none"
          d="m 2633.58,61.5938 -46.55,41.0512 -92.08,-101.25047 76.52,121.87147 -31.43,61.937 46.99,-41.324 92.1,101.336 -76.54,-121.949 z m 70.31,184.0272 h -49.57 l -67.23,-89.527 -22.16,29.371 h -49.57 L 2562.3,123.242 2469.99,0.96875 h 49.57 l 67.53,89.42575 22.13,-29.3242 h 49.56 l -46.9,62.1717 92.01,122.379" />
        <path
          id="path16"
          style="fill:#ffffff;fill-opacity:1;fill-rule:evenodd;stroke:none"
          d="m 2780.93,123.473 c 0,35.64 28.89,64.531 64.53,64.531 35.65,0 64.54,-28.891 64.54,-64.531 0,-35.6332 -28.89,-64.5277 -64.54,-64.5277 -35.64,0 -64.53,28.8945 -64.53,64.5277 z m 35.72,0 c 0,-15.914 12.9,-28.8128 28.81,-28.8128 15.93,0 28.83,12.8988 28.83,28.8128 0,15.918 -12.9,28.824 -28.83,28.824 -15.91,0 -28.81,-12.906 -28.81,-28.824 v 0" />
        <path
          id="path18"
          style="fill:#ffffff;fill-opacity:1;fill-rule:evenodd;stroke:none"
          d="M 2601.99,45.5508 V 34.9883 h -1.94 c -0.9,6.6992 -2.38,8.3086 -9.73,8.3086 h -6.31 c -2.06,0 -2.38,-0.2617 -2.38,-2.3242 v -15.586 h 9.01 c 5.48,0 5.74,1.543 6.32,5.5391 h 1.93 V 17.332 h -1.93 c -0.58,4.0586 -0.84,5.6055 -6.32,5.6055 h -9.01 V 8.70313 c 0,-3.16016 0.25,-4.25782 1.61,-4.83594 1.35,-0.51563 3.67,-0.63672 6.7,-0.63672 8.12,0 11.01,1.02344 12.5,8.87893 h 1.93 l -0.78,-11.136744 h -34.14 V 2.83984 c 5.67,0.39063 5.79,0.51172 5.79,4.1211 V 39.5586 c 0,3.6094 -0.12,3.7383 -5.79,4.1211 v 1.8711 h 32.54 v 0" />
        <path
          id="path20"
          style="fill:#ffffff;fill-opacity:1;fill-rule:evenodd;stroke:none"
          d="m 2636.57,45.5508 c 8.32,-11.8516 16.69,-23.707 25.13,-35.56252 l 0.13,-0.1289 V 32.4727 c 0,3.414 -0.13,5.8632 -0.45,7.9882 -0.39,2.7071 -1.93,2.8985 -6.12,3.2188 v 1.8711 h 15.27 v -1.8711 c -3.35,-0.2539 -4.9,-0.5117 -5.29,-3.2188 -0.32,-2.125 -0.45,-4.5742 -0.45,-7.9882 V 0.972656 h -4.25 C 2651.46,13.918 2642.31,26.8008 2633.1,39.7539 h -0.13 v -25.707 c 0,-3.4141 0.13,-5.86331 0.45,-7.98831 0.38,-2.70703 1.93,-2.89843 6.12,-3.21875 V 0.972656 h -15.27 V 2.83984 c 3.35,0.25782 4.9,0.51172 5.29,3.21875 0.31,2.125 0.44,4.57421 0.44,7.98831 v 25.5117 c 0,3.6094 -0.13,3.7383 -5.79,4.1211 v 1.8711 h 12.36 v 0" />
        <path
          id="path22"
          style="fill:#ffffff;fill-opacity:1;fill-rule:evenodd;stroke:none"
          d="M 2722.84,45.5508 V 34.9883 h -1.93 c -0.91,6.6992 -2.39,8.3086 -9.73,8.3086 h -6.32 c -2.06,0 -2.38,-0.2617 -2.38,-2.3242 v -15.586 h 9.02 c 5.48,0 5.73,1.543 6.31,5.5391 h 1.94 V 17.332 h -1.94 c -0.58,4.0586 -0.83,5.6055 -6.31,5.6055 h -9.02 V 8.70313 c 0,-3.16016 0.26,-4.25782 1.61,-4.83594 1.35,-0.51563 3.67,-0.63672 6.7,-0.63672 8.12,0 11.02,1.02344 12.5,8.87893 h 1.93 L 2724.44,0.972656 H 2690.3 V 2.83984 c 5.67,0.39063 5.8,0.51172 5.8,4.1211 V 39.5586 c 0,3.6094 -0.13,3.7383 -5.8,4.1211 v 1.8711 h 32.54 v 0" />
        <path
          id="path24"
          style="fill:#ffffff;fill-opacity:1;fill-rule:evenodd;stroke:none"
          d="m 2762.39,24.2266 c 6.25,0 9.79,2.9609 9.79,9.7304 0,7.5977 -5.41,9.3399 -10.18,9.3399 -4.25,0 -4.7,-0.5156 -4.7,-3.2227 V 24.2266 h 5.09 z m -5.09,-2.2578 V 6.96094 c 0,-3.60938 0.2,-3.73047 5.8,-4.1211 V 0.972656 h -17.97 V 2.83984 c 5.67,0.39063 5.79,0.51172 5.79,4.1211 V 39.5586 c 0,3.6094 -0.12,3.7383 -5.79,4.1211 v 1.8711 h 18.8 c 11.28,0 15.14,-4.836 15.14,-11.0195 0,-6.1211 -4.44,-10.1758 -10.5,-11.336 v -0.1289 c 6.84,-1.6758 7.99,-5.9961 8.76,-11.7266 0.59,-4.37886 1.62,-7.98824 6.64,-8.49996 V 0.972656 h -5.22 c -3.79,0 -6.25,1.414064 -7.21,5.539064 -0.71,2.95703 -1.42,8.05078 -1.87,9.85548 -1.1,4.3828 -4.06,5.6016 -7.93,5.6016 h -4.44 v 0" />
        <path
          id="path26"
          style="fill:#ffffff;fill-opacity:1;fill-rule:evenodd;stroke:none"
          d="m 2840.73,2.70703 c -4.06,-1.28515 -10.31,-2.70312375 -14.82,-2.70312375 -5.67,0 -11.33,0.70703175 -16.23,4.12500375 -4.71,3.34765 -8,9.98439 -8,18.29689 0,6.6953 1.55,11.8476 4.84,16.164 3.67,4.7696 10.11,7.9258 19.77,7.9258 5.16,0 10.7,-1.0937 13.86,-2.6406 V 33.7617 h -1.93 c -1.36,7.2813 -5.49,10.5 -12.57,10.5 -12.69,0 -16.75,-10.6328 -16.75,-20.8125 0,-8.0508 2.77,-21.19139 17.59,-21.19139 2.19,0 3.99,0.32032 5.67,0.97266 1.35,0.51172 2.19,1.21484 2.19,3.46875 v 8.69918 c 0,3.1602 -0.33,3.543 -6.83,3.9922 v 1.8711 h 17.78 v -1.8711 c -4.26,-0.4492 -4.57,-0.7695 -4.57,-3.9922 v -12.69137 0" />
        <path
          id="path28"
          style="fill:#ffffff;fill-opacity:1;fill-rule:evenodd;stroke:none"
          d="M 2871.32,0.972656 V 2.83984 c 6.64,0.39063 6.83,0.57422 6.83,4.1211 v 9.59376 c 0,1.2891 -0.25,2.3867 -0.96,3.7422 -3.16,6.375 -6.96,13.5273 -10.56,20.164 -1.42,2.7071 -2.32,3.0899 -5.74,3.2188 v 1.8711 h 16.68 v -1.8711 l -3.8,-0.3828 c -0.96,-0.1289 -1.22,-0.7774 -0.7,-1.9375 2.83,-6.1875 6.18,-12.6914 9.91,-19.4531 h 0.14 c 3.41,6.6992 7.79,15.5234 9.4,19.3906 0.51,1.2226 0.39,1.9336 -0.78,2.0625 l -3.47,0.3203 v 1.8711 h 14.11 v -1.8711 c -4.32,-0.1914 -4.7,-0.707 -6.9,-4.25 -2,-3.2149 -6.82,-12.2422 -10.11,-18.8125 -0.65,-1.2891 -0.84,-2.2578 -0.84,-3.8008 V 6.96094 c 0,-3.54688 0.19,-3.73047 6.83,-4.1211 V 0.972656 h -20.04 v 0" />
        <path
          id="path30"
          style="fill:#ffffff;fill-opacity:1;fill-rule:evenodd;stroke:none"
          d="m 2671.67,185.508 108.52,0.094 -0.1,-36.563 -44.35,0.016 V 61.9648 h -40.03 V 149.07 l -50.19,0.02 26.15,36.418 v 0" />
        <!-- end XTO symbol -->
      </g></g></svg>