<?xml version="1.0" encoding="utf-8"?>
<!-- Generator: Adobe Illustrator 23.0.3, SVG Export Plug-In . SVG Version: 6.00 Build 0)  -->
<svg version="1.1" id="Layer_1" xmlns="http://www.w3.org/2000/svg" xmlns:xlink="http://www.w3.org/1999/xlink" x="0px" y="0px"
	 viewBox="0 0 29.8 21.5" style="enable-background:new 0 0 29.8 21.5;" xml:space="preserve">
<style type="text/css">
	.st0{fill:#B3B5B6;}
</style>
<g>
	<g>
		<g>
			<path class="st0" d="M29.4,0.4C29.4,0.4,29.4,0.4,29.4,0.4C29.4,0.4,29.4,0.4,29.4,0.4C29.4,0.4,29.4,0.4,29.4,0.4
				C29.3,0.4,29.3,0.4,29.4,0.4C29,0.1,28.7,0,28.4,0H1.4c-0.4,0-0.7,0.1-1,0.4c0,0,0,0-0.1,0c0,0,0,0,0,0c0,0,0,0,0,0c0,0,0,0,0,0
				C0.1,0.7,0,1,0,1.4v18.7c0,0.4,0.1,0.7,0.4,1c0.1,0.1,0.1,0.1,0.2,0.1c0.2,0.2,0.5,0.2,0.8,0.2h26.9c0.3,0,0.6-0.1,0.8-0.2
				c0.1,0,0.2-0.1,0.2-0.1c0.3-0.3,0.4-0.6,0.4-1V1.4C29.8,1,29.6,0.7,29.4,0.4z M12,10.6L1.5,19.2V2.3L12,10.6z M13.2,11.6l1.5,1.2
				c0.1,0.1,0.3,0.2,0.5,0.2c0.2,0,0.3-0.1,0.5-0.2l1.3-1.1L27,20H2.8L13.2,11.6z M18.1,10.7l10.1-8.3v16.8L18.1,10.7z M27,1.5
				l-4.1,3.3l-7.8,6.4L2.8,1.5H27z"/>
		</g>
	</g>
</g>
</svg>
