<?xml version="1.0" encoding="UTF-8" standalone="no"?>
<svg
   xmlns:dc="http://purl.org/dc/elements/1.1/"
   xmlns:cc="http://creativecommons.org/ns#"
   xmlns:rdf="http://www.w3.org/1999/02/22-rdf-syntax-ns#"
   xmlns:svg="http://www.w3.org/2000/svg"
   xmlns="http://www.w3.org/2000/svg"
   viewBox="225 0 52 32.746666"
   height="32.746666"
   width="65"
   xml:space="preserve"
   id="svg102"
   version="1.1"><metadata
     id="metadata8"><rdf:RDF><cc:Work
         rdf:about=""><dc:format>image/svg+xml</dc:format><dc:type
           rdf:resource="http://purl.org/dc/dcmitype/StillImage" /></cc:Work></rdf:RDF></metadata><defs
     id="defs6" /><g
     transform="matrix(1.3333333,0,0,-1.3333333,0,32.746667)"
     id="g10">
      <g
       transform="scale(0.1)"
       id="g12">
	      <!-- start Esso symbol -->
	      <path
          id="path32"
          style="fill:#ffffff;fill-opacity:1;fill-rule:nonzero;stroke:none"
          d="M 1693.45,122.629 C 1693.52,54.8008 1772.53,-0.101563 1869.93,0.00390625 1967.32,0.105469 2046.22,55.1563 2046.14,122.984 c -0.07,67.829 -79.07,122.739 -176.46,122.637 -97.4,-0.098 -176.29,-55.16 -176.23,-122.992 z m 322.79,0.328 c 0.04,-52.6093 -65.47,-95.3281 -146.34,-95.4101 -80.87,-0.0821 -146.48,42.5078 -146.53,95.1171 -0.05,52.609 65.47,95.324 146.34,95.41 80.87,0.078 146.47,-42.508 146.53,-95.117" />
	      <path
          id="path34"
          style="fill:#ffffff;fill-opacity:1;fill-rule:nonzero;stroke:none"
          d="m 1971.97,120.348 c 0.22,-12.524 -4.2,-19.481 -10.51,-19.594 -6.29,-0.117 -10.69,6.684 -10.92,19.48 -0.23,12.805 3.91,19.762 10.22,19.875 6.3,0.118 10.97,-6.402 11.21,-19.761 z m -41,-0.602 c 0.52,-28.2499 14.44,-37.7304 31.39,-37.4296 16.96,0.3086 30.51,11.1289 30.01,38.5386 -0.5,28.254 -14.44,37.735 -31.39,37.426 -16.95,-0.304 -30.51,-10.847 -30.01,-38.535 z m -120.18,53.77 c -10.16,6.101 -22.95,7.75 -34.57,4.285 -7.64,-2.285 -14.21,-7.16 -17.45,-14.481 -1.55,-3.504 -2.4,-7.289 -2.32,-11.113 0.19,-8.531 5.89,-15.512 13.06,-19.809 -0.96,-1.351 -2.52,-1.687 -3.86,-2.566 -2.26,-1.484 -3.98,-3.234 -5.62,-5.23 -2.83,-3.442 -4.62,-7.286 -5.07,-11.692 -0.39,-3.93 -0.37,-7.859 1,-11.625 3.42,-9.4139 11.71,-16.2655 21.94,-18.0858 4.81,-0.8594 9.26,-1.1015 13.94,-0.7226 3.78,0.3125 6.96,1.0078 10.54,2.082 2.72,0.8086 4.92,1.4844 7.46,3.1992 0,0.0625 -2.6,17.2112 -2.54,17.2112 -7,-1.305 -14.4,-4.164 -21.36,-1.403 -4.21,1.676 -5.57,6.407 -4.87,10.657 0.6,3.644 3.27,6.023 6.5,7.218 5.62,2.079 11.9,1.77 17.81,1.586 l -0.23,16.426 c -4.57,-0.59 -9.49,-0.457 -14.59,0.477 -1.6,0.293 -3.06,1 -4.5,1.992 -1.4,0.949 -2.32,2.195 -3.06,3.578 -1.45,2.734 -1.58,5.805 -0.08,8.48 5.17,9.165 17.57,5.383 25.68,2.305 z M 1865,151.648 c -8.37,4.993 -19.02,7.247 -29.09,5.547 -2.84,-0.488 -5.47,-1.578 -8.04,-3.039 -3.1,-1.754 -5.43,-4.105 -7.52,-6.922 -1.58,-2.132 -2.47,-4.515 -3.05,-7.179 -0.87,-3.996 -0.65,-7.715 0.3,-11.649 2.58,-10.797 14.11,-13.25 22.97,-16.968 1.57,-0.661 3.15,-1.614 3.91,-3.219 0.88,-1.864 0.73,-4.301 -0.94,-5.805 -1.35,-1.211 -3.35,-1.578 -4.9,-1.711 -7.25,-0.57 -14.69,2.27 -20.98,5.891 0,-0.071 0.13,-18.7932 0.13,-18.7229 3.24,-1.8203 5.97,-2.4141 9.17,-3.4102 12.75,-3.9765 28.24,-2.9531 36.93,8.6797 4.41,5.9063 5.47,13.3754 3,20.2184 -1.29,3.602 -3.45,6.5 -6.74,8.778 -2.76,1.902 -5.47,3.308 -8.44,4.554 -4.34,1.821 -9.66,1.961 -12.88,5.829 -0.71,0.863 -0.79,2.761 -0.35,3.886 0.51,1.282 1.07,2.098 2.47,2.672 3.03,1.223 6.01,0.77 9.15,0.348 5.25,-0.707 10.4,-3.656 15.16,-5.664 z m 57.59,-17.789 c -4.76,2.008 -9.91,4.95 -15.15,5.664 -3.15,0.418 -6.13,0.879 -9.15,-0.355 -1.41,-0.57 -1.97,-1.383 -2.47,-2.66 -0.45,-1.137 -0.38,-3.035 0.35,-3.899 3.21,-3.851 8.53,-4.004 12.87,-5.824 2.97,-1.246 5.68,-2.648 8.44,-4.551 3.29,-2.281 5.45,-5.179 6.74,-8.785 2.47,-6.836 1.41,-14.3045 -2.99,-20.2146 -8.7,-11.6367 -24.18,-12.6563 -36.94,-8.6797 -3.2,0.9961 -5.94,1.5937 -9.17,3.4062 0,-0.0625 -0.13,18.6521 -0.13,18.7271 6.29,-3.614 13.73,-6.465 20.99,-5.883 1.53,0.121 3.55,0.492 4.9,1.707 1.66,1.5 1.82,3.941 0.93,5.804 -0.76,1.602 -2.33,2.555 -3.91,3.219 -8.86,3.715 -20.38,6.168 -22.97,16.961 -0.95,3.942 -1.17,7.652 -0.3,11.652 0.58,2.661 1.48,5.047 3.06,7.176 2.08,2.821 4.41,5.176 7.51,6.93 2.58,1.457 5.2,2.543 8.04,3.031 10.09,1.707 20.72,-0.551 29.1,-5.539 l 0.25,-17.887" />
	      <path
          id="path36"
          style="fill:#ffffff;fill-opacity:1;fill-rule:nonzero;stroke:none"
          d="m 2067.45,171.934 h -2.03 v 8.796 h -0.06 l -1.95,-8.796 h -2.18 l -1.93,8.796 h -0.03 v -8.796 h -2.05 v 10.527 h 3.23 l 1.89,-8.301 h 0.06 l 1.88,8.301 h 3.17 z m -14.65,0 h -2.18 v 8.652 h -3.22 v 1.875 h 8.61 v -1.875 h -3.21 v -8.652" />
	      <!-- end Esso symbol -->
      </g></g></svg>