<?xml version="1.0" encoding="UTF-8" standalone="no"?>
<svg
   xmlns:dc="http://purl.org/dc/elements/1.1/"
   xmlns:cc="http://creativecommons.org/ns#"
   xmlns:rdf="http://www.w3.org/1999/02/22-rdf-syntax-ns#"
   xmlns:svg="http://www.w3.org/2000/svg"
   xmlns="http://www.w3.org/2000/svg"
   viewBox="112 0 64 32.746666"
   height="32.746666"
   width="65"
   xml:space="preserve"
   id="svg101"
   version="1.1"><metadata
     id="metadata8"><rdf:RDF><cc:Work
         rdf:about=""><dc:format>image/svg+xml</dc:format><dc:type
           rdf:resource="http://purl.org/dc/dcmitype/StillImage" /></cc:Work></rdf:RDF></metadata><defs
     id="defs6" /><g
     transform="matrix(1.3333333,0,0,-1.3333333,0,32.746667)"
     id="g10">
      <g
       transform="scale(0.1)"
       id="g12">
        <!-- start Mobil symbol -->
        <path
          id="path42"
          style="fill:#ffffff;fill-opacity:1;fill-rule:nonzero;stroke:none"
          d="m 1029.12,91.2148 c -11.69,0 -21.16,9.4652 -21.16,21.1482 0,11.692 9.47,21.157 21.16,21.157 11.68,0 21.14,-9.465 21.14,-21.157 0,-11.683 -9.46,-21.1482 -21.14,-21.1482 z m 0,52.7932 c -17.47,0 -31.64,-14.168 -31.64,-31.645 0,-17.4685 14.17,-31.6325 31.64,-31.6325 17.47,0 31.63,14.164 31.63,31.6325 0,17.477 -14.16,31.645 -31.63,31.645 z m 0,-70.0744 c -21.23,0 -38.436,17.207 -38.436,38.4294 0,21.235 17.206,38.438 38.436,38.438 21.23,0 38.43,-17.203 38.43,-38.438 0,-21.2224 -17.2,-38.4294 -38.43,-38.4294 z m 0,87.9214 c -27.34,0 -49.491,-22.152 -49.491,-49.492 0,-27.32 22.151,-49.4841 49.491,-49.4841 27.33,0 49.48,22.1641 49.48,49.4841 0,27.34 -22.15,49.492 -49.48,49.492 z m 87.25,-96.2339 v 8.2734 c 6.84,-7.5547 15.47,-10.4336 25.53,-10.4336 26.8,0 47.11,22.4766 47.11,48.7231 0,26.246 -20.13,49.086 -47.11,49.086 -9.7,0 -18.15,-3.055 -25.53,-9.348 v 41.348 h -26.6 V 65.6211 Z m 22.98,24.0273 c -12.53,0 -22.68,10.1524 -22.68,22.6876 0,12.527 10.15,22.691 22.68,22.691 12.53,0 22.69,-10.164 22.69,-22.691 0,-12.5352 -10.16,-22.6876 -22.69,-22.6876 m 102.16,-24.0273 h 26.61 V 70.875 193.27 h -26.61 z m -41.35,0 h 26.6 v 93.4919 h -26.6 z m 0,102.4809 h 26.6 v 25.168 h -26.6 z M 840.699,193.27 h 41.356 l 23.371,-78.383 h 0.359 l 23.735,78.383 h 40.269 V 65.6211 H 943.184 V 155.879 H 942.82 L 917.289,65.6211 h -24.445 l -25.172,90.2579 h -0.363 V 65.6211 h -26.61 V 193.27" />
        <path
          id="path44"
          style="fill:#ffffff;fill-opacity:1;fill-rule:nonzero;stroke:none"
          d="m 1298.98,181.48 h -2.27 v 9.848 h -0.07 l -2.18,-9.848 h -2.44 l -2.17,9.848 h -0.04 v -9.848 h -2.29 v 11.79 h 3.62 l 2.12,-9.297 h 0.07 l 2.1,9.297 h 3.55 z m -16.41,0 h -2.44 v 9.688 h -3.6 v 2.102 h 9.64 v -2.102 h -3.6 v -9.688" />
        <!-- end Mobil symbol -->
      </g></g></svg>